<svg width="20" height="20" viewBox="0 0 20 20" fill="none" xmlns="http://www.w3.org/2000/svg">
<g id="Zodiac">
<path id="Vector (Stroke)" fill-rule="evenodd" clip-rule="evenodd" d="M13.9599 5.30409C12.7237 4.94958 11.358 4.80841 10.0014 4.89901C8.64418 4.98965 7.35997 5.30792 6.27531 5.81151C5.68342 6.08632 5.16944 6.40754 4.74086 6.76018C4.82636 6.75343 4.91278 6.75 5 6.75C6.79493 6.75 8.25 8.20507 8.25 10C8.25 11.7949 6.79493 13.25 5 13.25C3.22172 13.25 1.77702 11.8218 1.75038 10.0498C1.61482 8.92079 1.93281 7.80939 2.62639 6.8333C3.32451 5.85082 4.3763 5.03941 5.64364 4.451C6.91327 3.86153 8.38056 3.50392 9.90142 3.40235C11.4228 3.30074 12.9626 3.45765 14.3734 3.8622C14.7716 3.97637 15.0018 4.39171 14.8876 4.78987C14.7734 5.18804 14.3581 5.41826 13.9599 5.30409ZM5 8.25C4.0335 8.25 3.25 9.0335 3.25 10C3.25 10.9665 4.0335 11.75 5 11.75C5.9665 11.75 6.75 10.9665 6.75 10C6.75 9.0335 5.9665 8.25 5 8.25ZM15 8.25C14.0335 8.25 13.25 9.0335 13.25 10C13.25 10.9665 14.0335 11.75 15 11.75C15.9665 11.75 16.75 10.9665 16.75 10C16.75 9.0335 15.9665 8.25 15 8.25ZM11.75 10C11.75 8.20507 13.2051 6.75 15 6.75C16.7783 6.75 18.223 8.17821 18.2496 9.95016C18.3852 11.0792 18.0672 12.1904 17.3736 13.1665C16.6755 14.149 15.6237 14.9604 14.3564 15.5488C13.0867 16.1383 11.6195 16.4959 10.0986 16.5975C8.57721 16.6991 7.03738 16.5422 5.6266 16.1376C5.22844 16.0234 4.99822 15.6081 5.11239 15.2099C5.22657 14.8118 5.6419 14.5815 6.04007 14.6957C7.27635 15.0502 8.64197 15.1914 9.99864 15.1008C11.3558 15.0102 12.64 14.6919 13.7247 14.1883C14.3165 13.9135 14.8304 13.5924 15.2589 13.2398C15.1735 13.2466 15.0871 13.25 15 13.25C13.2051 13.25 11.75 11.7949 11.75 10Z" fill="currentColor"/>
</g>
</svg>
