<svg width="20" height="20" viewBox="0 0 20 20" fill="none" xmlns="http://www.w3.org/2000/svg">
<g id="Zodiac">
<path id="Vector (Stroke)" fill-rule="evenodd" clip-rule="evenodd" d="M9.16667 3.25C7.73993 3.25 6.58333 4.4066 6.58333 5.83333C6.58333 7.26007 7.73993 8.41667 9.16667 8.41667C10.5934 8.41667 11.75 7.26007 11.75 5.83333C11.75 4.4066 10.5934 3.25 9.16667 3.25ZM11.058 9.45318C11.0241 9.55587 10.9898 9.659 10.9552 9.76283L10.9469 9.78766C10.5324 11.0311 10.0833 12.3781 10.0833 14.1667C10.0833 15.2496 10.5135 16.2882 11.2793 17.054C12.0451 17.8198 13.0837 18.25 14.1667 18.25C15.2496 18.25 16.2882 17.8198 17.054 17.054C17.8198 16.2882 18.25 15.2496 18.25 14.1667C18.25 13.7525 17.9142 13.4167 17.5 13.4167C17.0858 13.4167 16.75 13.7525 16.75 14.1667C16.75 14.8518 16.4778 15.5089 15.9934 15.9934C15.5089 16.4778 14.8518 16.75 14.1667 16.75C13.4815 16.75 12.8244 16.4778 12.34 15.9934C11.8555 15.5089 11.5833 14.8518 11.5833 14.1667C11.5833 12.6338 11.9616 11.4869 12.3782 10.2372L12.3865 10.2123C12.8009 8.96895 13.25 7.62188 13.25 5.83333C13.25 3.57817 11.4218 1.75 9.16667 1.75C6.9115 1.75 5.08333 3.57817 5.08333 5.83333C5.08333 7.13247 5.48733 8.23337 5.86643 9.26642C5.89849 9.35378 5.93038 9.44067 5.96182 9.52714C6.05795 9.79148 6.15236 10.0571 6.24057 10.3285C5.85831 10.1705 5.43934 10.0833 5 10.0833C3.20507 10.0833 1.75 11.5384 1.75 13.3333C1.75 15.1283 3.20507 16.5833 5 16.5833C6.79493 16.5833 8.25 15.1283 8.25 13.3333C8.25 11.8226 7.93049 10.6289 7.57759 9.59592C8.06602 9.80246 8.60301 9.91667 9.16667 9.91667C9.84916 9.91667 10.4926 9.74922 11.058 9.45318ZM6.75 13.3333C6.75 12.3668 5.9665 11.5833 5 11.5833C4.0335 11.5833 3.25 12.3668 3.25 13.3333C3.25 14.2998 4.0335 15.0833 5 15.0833C5.9665 15.0833 6.75 14.2998 6.75 13.3333Z" fill="currentColor"/>
</g>
</svg>
