<svg width="20" height="20" viewBox="0 0 20 20" fill="none" xmlns="http://www.w3.org/2000/svg">
<g id="Pin">
<path id="Icon (Stroke)" fill-rule="evenodd" clip-rule="evenodd" d="M10 3.25C7.10051 3.25 4.75 5.60051 4.75 8.5C4.75 9.91908 5.38988 11.2585 6.46921 12.66C7.38056 13.8434 8.54705 15.0005 9.79921 16.2425C9.8659 16.3086 9.93284 16.375 10 16.4417C10.0672 16.375 10.1341 16.3086 10.2008 16.2425C11.453 15.0005 12.6194 13.8434 13.5308 12.66C14.6101 11.2585 15.25 9.91908 15.25 8.5C15.25 5.60051 12.8995 3.25 10 3.25ZM3.25 8.5C3.25 4.77208 6.27208 1.75 10 1.75C13.7279 1.75 16.75 4.77208 16.75 8.5C16.75 10.3946 15.8899 12.0552 14.7192 13.5753C13.741 14.8455 12.4889 16.0867 11.2381 17.3267C11.0015 17.5612 10.765 17.7957 10.5303 18.0303C10.3897 18.171 10.1989 18.25 10 18.25C9.80109 18.25 9.61032 18.171 9.46967 18.0303C9.23503 17.7957 8.99848 17.5612 8.76189 17.3267C7.51111 16.0867 6.25904 14.8455 5.28079 13.5753C4.11012 12.0552 3.25 10.3946 3.25 8.5ZM10 7C9.17157 7 8.5 7.67158 8.5 8.5C8.5 9.32843 9.17157 10 10 10C10.8284 10 11.5 9.32843 11.5 8.5C11.5 7.67158 10.8284 7 10 7ZM7 8.5C7 6.84315 8.34315 5.5 10 5.5C11.6569 5.5 13 6.84315 13 8.5C13 10.1569 11.6569 11.5 10 11.5C8.34315 11.5 7 10.1569 7 8.5Z" fill="currentColor"/>
</g>
</svg>
