<svg width="24" height="24" viewBox="0 0 24 24" fill="none" xmlns="http://www.w3.org/2000/svg">
<g id="Check-verified">
<path id="Exclude" fill-rule="evenodd" clip-rule="evenodd" d="M7.56708 4.22776C8.33072 4.16682 9.05568 3.86653 9.63875 3.36965C10.9994 2.21012 13.0006 2.21012 14.3613 3.36965C14.9443 3.86653 15.6693 4.16682 16.4329 4.22776C18.215 4.36997 19.63 5.78505 19.7722 7.56708C19.8332 8.33072 20.1335 9.05568 20.6304 9.63875C21.7899 10.9994 21.7899 13.0006 20.6304 14.3613C20.1335 14.9443 19.8332 15.6693 19.7722 16.4329C19.63 18.215 18.215 19.63 16.4329 19.7722C15.6693 19.8332 14.9443 20.1335 14.3613 20.6304C13.0006 21.7899 10.9994 21.7899 9.63875 20.6304C9.05568 20.1335 8.33072 19.8332 7.56708 19.7722C5.78505 19.63 4.36997 18.215 4.22776 16.4329C4.16682 15.6693 3.86653 14.9443 3.36965 14.3613C2.21012 13.0006 2.21012 10.9994 3.36965 9.63875C3.86653 9.05568 4.16682 8.33072 4.22776 7.56708C4.36997 5.78505 5.78505 4.36997 7.56708 4.22776ZM15.7803 10.5303C16.0732 10.2374 16.0732 9.76256 15.7803 9.46967C15.4874 9.17678 15.0126 9.17678 14.7197 9.46967L10.75 13.4393L9.28033 11.9697C8.98744 11.6768 8.51256 11.6768 8.21967 11.9697C7.92678 12.2626 7.92678 12.7374 8.21967 13.0303L10.2197 15.0303C10.5126 15.3232 10.9874 15.3232 11.2803 15.0303L15.7803 10.5303Z" fill="#007AFF"/>
</g>
</svg>
