<svg width="25" height="25" viewBox="0 0 25 25" fill="none" xmlns="http://www.w3.org/2000/svg">
<g id="Xmark">
<path id="Shape" d="M18.795 7.615C19.1844 7.22564 19.1844 6.59436 18.795 6.205C18.4056 5.81564 17.7744 5.81564 17.385 6.205L12.5 11.09L7.615 6.205C7.22564 5.81564 6.59436 5.81564 6.205 6.205C5.81564 6.59436 5.81564 7.22564 6.205 7.615L11.09 12.5L6.205 17.385C5.81564 17.7744 5.81564 18.4056 6.205 18.795C6.59436 19.1844 7.22564 19.1844 7.615 18.795L12.5 13.91L17.385 18.795C17.7744 19.1844 18.4056 19.1844 18.795 18.795C19.1844 18.4056 19.1844 17.7744 18.795 17.385L13.91 12.5L18.795 7.615Z" fill="#FF2D55"/>
</g>
</svg>
